<mxfile host="app.diagrams.net" modified="2023-04-14T17:47:58.748Z" agent="Mozilla/5.0 (Windows NT 10.0; Win64; x64) AppleWebKit/537.36 (KHTML, like Gecko) Chrome/112.0.0.0 Safari/537.36" etag="Iv7mTsae8X6fierzOPIv" version="21.1.8" type="device">
  <diagram name="PÃ¡gina-1" id="z1WrnCdPsFhQx2PhxRRl">
    <mxGraphModel dx="704" dy="387" grid="1" gridSize="10" guides="1" tooltips="1" connect="1" arrows="1" fold="1" page="1" pageScale="1" pageWidth="827" pageHeight="1169" math="0" shadow="0">
      <root>
        <mxCell id="0" />
        <mxCell id="1" parent="0" />
        <mxCell id="GwD4i4CBx8kYknnuJ5Pw-1" value="Proprietario" style="swimlane;childLayout=stackLayout;horizontal=1;startSize=50;horizontalStack=0;rounded=1;fontSize=14;fontStyle=0;strokeWidth=2;resizeParent=0;resizeLast=1;shadow=0;dashed=0;align=center;arcSize=4;whiteSpace=wrap;html=1;" vertex="1" parent="1">
          <mxGeometry x="220" y="140" width="100" height="120" as="geometry" />
        </mxCell>
        <mxCell id="GwD4i4CBx8kYknnuJ5Pw-2" value="cpf PK&lt;br&gt;nome&lt;br&gt;endereco&lt;br&gt;telefone" style="align=left;strokeColor=none;fillColor=none;spacingLeft=4;fontSize=12;verticalAlign=top;resizable=0;rotatable=0;part=1;html=1;" vertex="1" parent="GwD4i4CBx8kYknnuJ5Pw-1">
          <mxGeometry y="50" width="100" height="70" as="geometry" />
        </mxCell>
        <mxCell id="GwD4i4CBx8kYknnuJ5Pw-4" value="Corredor" style="swimlane;childLayout=stackLayout;horizontal=1;startSize=50;horizontalStack=0;rounded=1;fontSize=14;fontStyle=0;strokeWidth=2;resizeParent=0;resizeLast=1;shadow=0;dashed=0;align=center;arcSize=4;whiteSpace=wrap;html=1;" vertex="1" parent="1">
          <mxGeometry x="520" y="140" width="100" height="120" as="geometry" />
        </mxCell>
        <mxCell id="GwD4i4CBx8kYknnuJ5Pw-5" value="cpf PK&lt;br&gt;nome&amp;nbsp;&lt;br&gt;endereco&amp;nbsp;&lt;br&gt;telefone&lt;br&gt;" style="align=left;strokeColor=none;fillColor=none;spacingLeft=4;fontSize=12;verticalAlign=top;resizable=0;rotatable=0;part=1;html=1;" vertex="1" parent="GwD4i4CBx8kYknnuJ5Pw-4">
          <mxGeometry y="50" width="100" height="70" as="geometry" />
        </mxCell>
        <mxCell id="GwD4i4CBx8kYknnuJ5Pw-8" value="Imovel" style="swimlane;childLayout=stackLayout;horizontal=1;startSize=50;horizontalStack=0;rounded=1;fontSize=14;fontStyle=0;strokeWidth=2;resizeParent=0;resizeLast=1;shadow=0;dashed=0;align=center;arcSize=4;whiteSpace=wrap;html=1;" vertex="1" parent="1">
          <mxGeometry x="210" y="380" width="120" height="150" as="geometry" />
        </mxCell>
        <mxCell id="GwD4i4CBx8kYknnuJ5Pw-9" value="registro PK&lt;br&gt;descricao&lt;br&gt;endereco&amp;nbsp;&lt;br&gt;tipo imovel&lt;br&gt;valor&lt;br&gt;cpf prorprietario PF" style="align=left;strokeColor=none;fillColor=none;spacingLeft=4;fontSize=12;verticalAlign=top;resizable=0;rotatable=0;part=1;html=1;" vertex="1" parent="GwD4i4CBx8kYknnuJ5Pw-8">
          <mxGeometry y="50" width="120" height="100" as="geometry" />
        </mxCell>
        <mxCell id="GwD4i4CBx8kYknnuJ5Pw-10" value="Inquilino" style="swimlane;childLayout=stackLayout;horizontal=1;startSize=50;horizontalStack=0;rounded=1;fontSize=14;fontStyle=0;strokeWidth=2;resizeParent=0;resizeLast=1;shadow=0;dashed=0;align=center;arcSize=4;whiteSpace=wrap;html=1;" vertex="1" parent="1">
          <mxGeometry x="520" y="380" width="110" height="150" as="geometry" />
        </mxCell>
        <mxCell id="GwD4i4CBx8kYknnuJ5Pw-11" value="cpf PK&lt;br&gt;nome&lt;br&gt;endereco&lt;br&gt;telefone&lt;br&gt;cpf corretor PF&lt;br&gt;registro imovel PF" style="align=left;strokeColor=none;fillColor=none;spacingLeft=4;fontSize=12;verticalAlign=top;resizable=0;rotatable=0;part=1;html=1;" vertex="1" parent="GwD4i4CBx8kYknnuJ5Pw-10">
          <mxGeometry y="50" width="110" height="100" as="geometry" />
        </mxCell>
        <mxCell id="GwD4i4CBx8kYknnuJ5Pw-15" value="" style="endArrow=none;html=1;rounded=0;exitX=0.5;exitY=0;exitDx=0;exitDy=0;" edge="1" parent="1" source="GwD4i4CBx8kYknnuJ5Pw-8">
          <mxGeometry relative="1" as="geometry">
            <mxPoint x="220" y="320" as="sourcePoint" />
            <mxPoint x="270" y="260" as="targetPoint" />
          </mxGeometry>
        </mxCell>
        <mxCell id="GwD4i4CBx8kYknnuJ5Pw-16" value="1" style="resizable=0;html=1;whiteSpace=wrap;align=right;verticalAlign=bottom;" connectable="0" vertex="1" parent="GwD4i4CBx8kYknnuJ5Pw-15">
          <mxGeometry x="1" relative="1" as="geometry">
            <mxPoint x="13" y="19" as="offset" />
          </mxGeometry>
        </mxCell>
        <mxCell id="GwD4i4CBx8kYknnuJ5Pw-17" value="N" style="resizable=0;html=1;whiteSpace=wrap;align=right;verticalAlign=bottom;" connectable="0" vertex="1" parent="1">
          <mxGeometry x="294.9999999999999" y="299.9999999999999" as="geometry">
            <mxPoint x="-10" y="78" as="offset" />
          </mxGeometry>
        </mxCell>
        <mxCell id="GwD4i4CBx8kYknnuJ5Pw-18" value="" style="endArrow=none;html=1;rounded=0;exitX=0.5;exitY=0;exitDx=0;exitDy=0;" edge="1" parent="1">
          <mxGeometry relative="1" as="geometry">
            <mxPoint x="569.5799999999999" y="380" as="sourcePoint" />
            <mxPoint x="569.5799999999999" y="260" as="targetPoint" />
          </mxGeometry>
        </mxCell>
        <mxCell id="GwD4i4CBx8kYknnuJ5Pw-19" value="1" style="resizable=0;html=1;whiteSpace=wrap;align=right;verticalAlign=bottom;" connectable="0" vertex="1" parent="GwD4i4CBx8kYknnuJ5Pw-18">
          <mxGeometry x="1" relative="1" as="geometry">
            <mxPoint x="-4" y="19" as="offset" />
          </mxGeometry>
        </mxCell>
        <mxCell id="GwD4i4CBx8kYknnuJ5Pw-20" value="N" style="resizable=0;html=1;whiteSpace=wrap;align=right;verticalAlign=bottom;" connectable="0" vertex="1" parent="1">
          <mxGeometry x="575.9999999999999" y="299.9999999999999" as="geometry">
            <mxPoint x="-10" y="78" as="offset" />
          </mxGeometry>
        </mxCell>
        <mxCell id="GwD4i4CBx8kYknnuJ5Pw-21" value="" style="endArrow=none;html=1;rounded=0;entryX=0;entryY=0.5;entryDx=0;entryDy=0;" edge="1" parent="1" source="GwD4i4CBx8kYknnuJ5Pw-9" target="GwD4i4CBx8kYknnuJ5Pw-11">
          <mxGeometry relative="1" as="geometry">
            <mxPoint x="340" y="450" as="sourcePoint" />
            <mxPoint x="520" y="450" as="targetPoint" />
          </mxGeometry>
        </mxCell>
        <mxCell id="GwD4i4CBx8kYknnuJ5Pw-22" value="1" style="resizable=0;html=1;whiteSpace=wrap;align=right;verticalAlign=bottom;" connectable="0" vertex="1" parent="GwD4i4CBx8kYknnuJ5Pw-21">
          <mxGeometry x="1" relative="1" as="geometry">
            <mxPoint x="-3" as="offset" />
          </mxGeometry>
        </mxCell>
        <mxCell id="GwD4i4CBx8kYknnuJ5Pw-23" value="N" style="resizable=0;html=1;whiteSpace=wrap;align=right;verticalAlign=bottom;" connectable="0" vertex="1" parent="1">
          <mxGeometry x="351.9999999999999" y="401.9999999999999" as="geometry">
            <mxPoint x="-10" y="78" as="offset" />
          </mxGeometry>
        </mxCell>
      </root>
    </mxGraphModel>
  </diagram>
</mxfile>
